<?xml version="1.0" encoding="utf-8"?>
<!-- Generator: Adobe Illustrator 19.0.0, SVG Export Plug-In . SVG Version: 6.00 Build 0)  -->
<svg version="1.1" id="Layer_1" xmlns="http://www.w3.org/2000/svg" xmlns:xlink="http://www.w3.org/1999/xlink" x="0px" y="0px"
	 viewBox="0 0 712 660" style="enable-background:new 0 0 712 660;" xml:space="preserve">
<style type="text/css">
	.st0{fill:#009245;}
	.st1{fill:#FCEE21;}
	.st2{fill:#FFFFFF;}
	.st3{fill:#FFFFFF;stroke:#000000;stroke-miterlimit:10;}
	.st4{fill:none;stroke:#000000;stroke-miterlimit:10;}
</style>
<ellipse id="XMLID_2_" class="st0" cx="356" cy="330" rx="356" ry="330"/>
<rect id="XMLID_4_" x="419.1" y="104.2" transform="matrix(-0.7967 -0.6044 0.6044 -0.7967 550.4016 967.2908)" class="st1" width="37.6" height="573.8"/>
<rect id="XMLID_62_" x="554.9" y="108.1" transform="matrix(0.6044 -0.7967 0.7967 0.6044 49.9278 543.1594)" class="st1" width="33.9" height="226.4"/>
<rect id="XMLID_63_" x="515.3" y="108.5" transform="matrix(0.6044 -0.7967 0.7967 0.6044 -5.7732 532.1216)" class="st1" width="35.2" height="326.7"/>
<path id="XMLID_64_" class="st2" d="M208,199.5c0.3,6.1-5.1,13.5-7,19.4c-1.7,5.1-3,10.2-3.7,15.6c-0.7,5.7-1,11.7-0.7,17.4
	c4.6,2,10.9,2.9,16,3.6c3.2,0.4,6.2,0.6,9.4,1.4c2,0.5,3.9,1,5.9,1.5c1.6,0.4,8,2.8,4.7,1.1c48.9,15.7,97,34.2,143.3,55.7
	c3.3,1.5,6.6,3,10.1,4.2c7.5,2.5,16.5,4.7,18.9-4.5c1.5-5.6,0.3-12,0.6-17.8c0.6-11.2,2.7-20.8-0.9-32c-4.6-14-12.3-31-22.3-41.8
	c-5.9-6.5-12.6-12.4-20.3-16.7c-10.5-5.8-22.2-6.4-33.6-9.2c-27.7-6.7-56.4-4.8-84.4-1.2c-13.2,1.7-27,2.5-39.9,5.3"/>
<path id="XMLID_65_" class="st2" d="M161.2,197.1c2,4,6.7,6.3,8.6,10.3c2.1,4.4,0.5,9.7,1.7,14.4c1.4,5.2,6.1,9.1,11.2,10.9
	c5.1,1.8,10.7,1.8,16.1,1.8c4,0,8.1,0,12.1,0.1c1.6,0,3.2,0,4.6-0.8c1-0.6,1.7-1.5,2.3-2.5c3.1-5.3,2.3-12.1-0.5-17.6
	c-2.8-5.4-7.3-9.7-11.9-13.8c-8.7-7.7-18.7-15.1-30.2-16c-3-0.2-6.8,0.7-7.2,3.6c-0.3,1.7,0.6,4.1-1,4.8"/>
<path id="XMLID_3_" class="st3" d="M400.9,317.3c0.6-24.1-6.3-48.4-19.6-68.5c-2.2-3.4-4.7-6.8-4.9-10.9c-0.2-4.5,2.5-8.6,5.1-12.3
	c5.4-7.7,12-16,21.3-16.8c5.7-0.5,11.2,2.1,16.2,4.8c30.4,16.3,56.9,39.9,76.6,68.2c3,4.3,6,9.5,4.4,14.5c-1.2,3.8-4.7,6.4-8.1,8.5
	c-25.9,15.7-60.1,16.4-86.6,1.8c6.1,35.4,11.6,74.6-7.6,105c-8.3,13.2-20.6,23.3-32.9,33c-19.1,15-39.4,29.7-62.8,36
	c-42.9,11.6-89.5-7.2-122-37.5c-10.2-9.5-19.5-20.3-24.5-33.3c-10.9-28,0-59.8-4.9-89.4C126,331,99.6,337.3,73,339.1
	c-4.2,0.3-8.8,0.4-12.2-2.2c-4.2-3.3-4.7-9.3-4.3-14.6c1.9-26,15.9-50.1,34.8-68.1c40.5-38.4,83.7-50.5,134.2-25.2
	c17.4,8.7,41.3,0.1,49.2-17.7c1.5-3.5,3.4-7.9,7.2-7.9c4.1,0,5.9,4.9,8,8.3c6.3,10.6,24.8,9.9,30.3-1.2
	c6.9,32.8,47.1,27.1,66.2,10.5c17.6-15.3,22.5-43.3,20.4-65c-0.5-5-1.5-10.2-4.9-13.9c-3.4-3.7-8.5-5.1-13-7.3
	c-14.2-7-26.4-23.6-41.8-19.7c-9.2,2.4-16.5,12.1-25.9,10.7c-8.8-1.4-12.9-11.5-19.6-17.4c-12.4-10.9-31.7-5.8-47.2-0.2
	c-10.7,3.9-23.8,11.8-21.1,22.9c-8.4,2.9-13.4-9.1-20.6-14.3c-10.1-7.4-25,0-32.1,10.4c-7.2,10.3-10.4,23.2-18.5,32.8
	c-3.2,3.7-7,6.9-9.5,11.1c-6.4,11-1,25.9,8.9,33.9c0.6,0.5,1.3,1,2,1.5"/>
<path id="XMLID_5_" class="st3" d="M328.5,280.2c-7.2-2.2-13.9,5.1-16.7,12.2c-3.3,8.5-3.8,19.5,3.2,25.3c5.5,4.6,14.2,4.1,20.1-0.1
	c5.9-4.2,9.1-11.3,10-18.4c0.5-3.8,0.4-7.9-1.3-11.4c-2.7-5.8-9.2-9.1-15.6-9.8s-12.8,0.8-19,2.3"/>
<path id="XMLID_6_" class="st3" d="M250.3,293.3c1.7-2.4-1.2-5.5-3.8-6.7c-7.3-3.5-16.3-4.3-23.2-0.2c-6.9,4.1-10.4,14.1-5.9,20.8
	c1.7,2.5,4.2,4.3,6.9,5.5c7.6,3.5,17.2,2.5,23.4-3.1c6.2-5.6,8.2-15.6,3.9-22.8c-3.1-0.2-6.2-0.3-9.2-0.5"/>
<path id="XMLID_7_" class="st3" d="M295.4,444.5c-0.3,1.2-2.4,1-2.9-0.1c-0.6-1.1-0.1-2.5,0.3-3.7c5.5-13.6,15.4-25.4,27.9-33.2
	c1.8,3.4,2.2,9.5-1.7,9.2c-0.1-2-0.1-4-0.2-6.1c0,2,0,4,0,6"/>
<path id="XMLID_8_" class="st3" d="M275,441.7c-6.4-0.3-10.4-6.8-13.8-12.3c-3.4-5.5-9-11.4-15.1-9.5c-2.9-2.3-1.6-7.4,1.6-9.5
	c3.1-2,7.1-1.9,10.9-1.7c1.5,6.4-4.6,13.3-11.1,12.6c0-3.1,0-6.2,0-9.3c2.2-0.7,4.2,2.7,2.6,4.3L275,441.7z"/>
<path id="XMLID_61_" class="st4" d="M149.9,323.3c2.8-30.5,8.5-60.8,17-90.3c2.4-8.3,4.8-18-0.3-25c-2-2.8-5.1-4.8-6.5-7.9"/>
</svg>
